<?xml version="1.0" encoding="utf-8"?>
<svg version="1.1" xmlns:xlink="http://www.w3.org/1999/xlink" width="29px" height="27px" xmlns="http://www.w3.org/2000/svg">
  <g transform="matrix(1 0 0 1 -417 -182 )">
    <path d="M 12.7397836538462 2.52371651785714  C 12.3098958333333 2.126953125  11.78125 1.92857142857143  11.1538461538462 1.92857142857143  C 10.5380608974359 1.92857142857143  10.0123197115385 2.11690848214286  9.57662259615384 2.49358258928571  C 9.14092548076923 2.87025669642857  8.92307692307692 3.32477678571428  8.92307692307692 3.85714285714286  L 8.92307692307692 11.5714285714286  L 8.92307692307692 17.3571428571429  L 6.29146634615385 14.3136160714286  C 5.81510416666667 13.7712053571429  5.19350961538462 13.5  4.42668269230769 13.5  C 3.82251602564103 13.5  3.30548878205128 13.6908482142857  2.87560096153846 14.0725446428571  C 2.44571314102564 14.4542410714286  2.23076923076923 14.90625  2.23076923076923 15.4285714285714  C 2.23076923076923 15.8604910714286  2.3818108974359 16.2472098214286  2.68389423076923 16.5887276785714  L 9.37620192307692 24.3030133928571  C 9.81770833333333 24.8152901785714  10.4102564102564 25.0714285714286  11.1538461538462 25  L 23.6670673076923 25  C 23.9226762820513 25.0714285714286  24.1521434294872 25.0036272321429  24.35546875 24.8680245535714  C 24.5587940705128 24.732421875  24.6895032051282 24.5591517857143  24.7475961538462 24.3482142857143  L 26.3509615384615 18.8035714285714  C 26.6298076923077 17.8392857142857  26.7692307692308 16.8649553571429  26.7692307692308 15.8805803571429  L 26.7692307692308 12.6110491071429  C 26.7692307692308 12.19921875  26.6065705128205 11.8426339285714  26.28125 11.5412946428571  C 25.9559294871795 11.2399553571429  25.5608974358974 11.0892857142857  25.0961538461538 11.0892857142857  C 24.6314102564103 11.0892857142857  24.2363782051282 11.2299107142857  23.9110576923077 11.5111607142857  C 23.5857371794872 11.7924107142857  23.4230769230769 12.1339285714286  23.4230769230769 12.5357142857143  L 22.8653846153846 12.5357142857143  L 22.8653846153846 11.6166294642857  C 22.8653846153846 11.1344866071429  22.6794871794872 10.7251674107143  22.3076923076923 10.388671875  C 21.9358974358974 10.0521763392857  21.4711538461538 9.88392857142857  20.9134615384615 9.88392857142857  C 20.3790064102564 9.88392857142857  19.9200721153846 10.0496651785714  19.5366586538462 10.3811383928571  C 19.1532451923077 10.7126116071429  18.9615384615385 11.109375  18.9615384615385 11.5714285714286  L 18.9615384615385 12.5357142857143  L 18.4038461538462 12.5357142857143  L 18.4038461538462 11.1796875  C 18.4038461538462 10.6272321428571  18.1889022435897 10.1526227678571  17.7590144230769 9.755859375  C 17.3291266025641 9.35909598214285  16.8004807692308 9.16071428571429  16.1730769230769 9.16071428571429  C 15.5572916666667 9.16071428571429  15.0315504807692 9.34905133928571  14.5958533653846 9.72572544642857  C 14.16015625 10.1023995535714  13.9423076923077 10.5569196428571  13.9423076923077 11.0892857142857  L 13.9423076923077 12.5357142857143  L 13.3846153846154 12.5357142857143  L 13.3846153846154 3.94754464285714  C 13.3846153846154 3.39508928571428  13.169671474359 2.92047991071428  12.7397836538462 2.52371651785714  Z M 7.99939903846154 1.13002232142857  C 8.87079326923077 0.376674107142858  9.92227564102564 0  11.1538461538462 0  C 12.3970352564103 0  13.451422275641 0.389229910714287  14.3170072115385 1.16768973214286  C 15.1825921474359 1.94614955357143  15.6153846153846 2.87276785714285  15.6153846153846 3.94754464285714  L 15.6153846153846 7.26227678571429  C 15.8709935897436 7.2421875  16.056891025641 7.23214285714286  16.1730769230769 7.23214285714286  C 17.3233173076923 7.23214285714286  18.3283253205128 7.57868303571429  19.1881009615385 8.27176339285714  C 19.7341746794872 8.06082589285714  20.3092948717949 7.95535714285714  20.9134615384615 7.95535714285714  C 22.2263621794872 7.95535714285714  23.2952724358974 8.39229910714286  24.1201923076923 9.26618303571429  C 24.4338942307692 9.19587053571428  24.7592147435897 9.16071428571429  25.0961538461538 9.16071428571429  C 26.1883012820513 9.16071428571429  27.1119791666667 9.49972098214286  27.8671875 10.177734375  C 28.6223958333333 10.8557477678571  29 11.6668526785714  29 12.6110491071429  L 29 15.8805803571429  C 29 17.0457589285714  28.8373397435897 18.17578125  28.5120192307692 19.2706473214286  L 26.9086538461538 24.8152901785714  C 26.7227564102564 25.4581473214286  26.3277243589744 25.9829799107143  25.7235576923077 26.3897879464286  C 25.119391025641 26.7965959821429  24.4338942307692 27  23.6670673076923 27  L 11.1538461538462 27  C 10.4567307692308 27  9.79156650641026 26.8618861607143  9.15835336538462 26.5856584821429  C 8.52514022435897 26.3094308035714  7.99939903846154 25.9352678571429  7.58112980769231 25.4631696428571  L 0.888822115384615 17.7488839285714  C 0.296274038461538 17.0658482142857  0 16.2924107142857  0 15.4285714285714  C 0 14.3738839285714  0.432792467948718 13.4673549107143  1.29837740384615 12.708984375  C 2.16396233974359 11.9506138392857  3.20673076923077 11.5714285714286  4.42668269230769 11.5714285714286  C 5.25160256410256 11.5714285714286  6.0068108974359 11.7472098214286  6.69230769230769 12.0987723214286  L 6.69230769230769 3.85714285714286  C 6.69230769230769 2.79241071428571  7.12800480769231 1.88337053571429  7.99939903846154 1.13002232142857  Z M 12.8269230769231 21.2142857142857  L 13.3846153846154 21.2142857142857  L 13.3846153846154 15.4285714285714  L 12.8269230769231 15.4285714285714  L 12.8269230769231 21.2142857142857  Z M 17.2884615384615 21.2142857142857  L 17.8461538461538 21.2142857142857  L 17.8461538461538 15.4285714285714  L 17.2884615384615 15.4285714285714  L 17.2884615384615 21.2142857142857  Z M 21.75 21.2142857142857  L 22.3076923076923 21.2142857142857  L 22.3076923076923 15.4285714285714  L 21.75 15.4285714285714  L 21.75 21.2142857142857  Z " fill-rule="nonzero" fill="#000000" stroke="none" transform="matrix(1 0 0 1 417 182 )" />
  </g>
</svg>