<?xml version="1.0" encoding="utf-8"?>
<svg version="1.1" xmlns:xlink="http://www.w3.org/1999/xlink" width="26px" height="31px" xmlns="http://www.w3.org/2000/svg">
  <g transform="matrix(1 0 0 1 -204 -456 )">
    <path d="M 11.421875 2.89760044642857  C 11.0364583333333 2.44205729166667  10.5625 2.21428571428571  10 2.21428571428571  C 9.44791666666667 2.21428571428571  8.9765625 2.43052455357143  8.5859375 2.86300223214286  C 8.1953125 3.29547991071429  8 3.81733630952381  8 4.42857142857143  L 8 13.2857142857143  L 8 19.9285714285714  L 5.640625 16.4341517857143  C 5.21354166666667 15.8113839285714  4.65625 15.5  3.96875 15.5  C 3.42708333333333 15.5  2.96354166666667 15.7191220238095  2.578125 16.1573660714286  C 2.19270833333333 16.5956101190476  2 17.1145833333333  2 17.7142857142857  C 2 18.210193452381  2.13541666666667 18.6542038690476  2.40625 19.0463169642857  L 8.40625 27.9034598214286  C 8.80208333333333 28.4916294642857  9.33333333333333 28.7857142857143  10 28.7857142857143  L 21.21875 28.7857142857143  C 21.4479166666667 28.7857142857143  21.6536458333333 28.7078683035714  21.8359375 28.5521763392857  C 22.0182291666667 28.396484375  22.1354166666667 28.1975446428571  22.1875 27.9553571428571  L 23.625 21.5892857142857  C 23.875 20.4821428571429  24 19.3634672619048  24 18.2332589285714  L 24 14.4793526785714  C 24 14.0065104166667  23.8541666666667 13.5970982142857  23.5625 13.2511160714286  C 23.2708333333333 12.9051339285714  22.9166666666667 12.7321428571429  22.5 12.7321428571429  C 22.0833333333333 12.7321428571429  21.7291666666667 12.8936011904762  21.4375 13.2165178571429  C 21.1458333333333 13.5394345238095  21 13.9315476190476  21 14.3928571428571  L 20.5 14.3928571428571  L 20.5 13.3376116071429  C 20.5 12.7840401785714  20.3333333333333 12.3140811011905  20 11.927734375  C 19.6666666666667 11.5413876488095  19.25 11.3482142857143  18.75 11.3482142857143  C 18.2708333333333 11.3482142857143  17.859375 11.5385044642857  17.515625 11.9190848214286  C 17.171875 12.2996651785714  17 12.7552083333333  17 13.2857142857143  L 17 14.3928571428571  L 16.5 14.3928571428571  L 16.5 12.8359375  C 16.5 12.2016369047619  16.3072916666667 11.6567150297619  15.921875 11.201171875  C 15.5364583333333 10.7456287202381  15.0625 10.5178571428571  14.5 10.5178571428571  C 13.9479166666667 10.5178571428571  13.4765625 10.7340959821429  13.0859375 11.1665736607143  C 12.6953125 11.5990513392857  12.5 12.1209077380952  12.5 12.7321428571429  L 12.5 14.3928571428571  L 12 14.3928571428571  L 12 4.53236607142857  C 12 3.89806547619047  11.8072916666667 3.35314360119047  11.421875 2.89760044642857  Z M 7.171875 1.29743303571429  C 7.953125 0.43247767857143  8.89583333333333 0  10 0  C 11.1145833333333 0  12.0598958333333 0.446893601190478  12.8359375 1.34068080357143  C 13.6119791666667 2.23446800595238  14 3.29836309523809  14 4.53236607142857  L 14 8.33816964285714  C 14.2291666666667 8.31510416666667  14.3958333333333 8.30357142857143  14.5 8.30357142857143  C 15.53125 8.30357142857143  16.4322916666667 8.70145089285714  17.203125 9.49720982142857  C 17.6927083333333 9.25502232142857  18.2083333333333 9.13392857142857  18.75 9.13392857142857  C 19.9270833333333 9.13392857142857  20.8854166666667 9.63560267857143  21.625 10.6389508928571  C 21.90625 10.5582217261905  22.1979166666667 10.5178571428571  22.5 10.5178571428571  C 23.4791666666667 10.5178571428571  24.3072916666667 10.9070870535714  24.984375 11.685546875  C 25.6614583333333 12.4640066964286  26 13.395275297619  26 14.4793526785714  L 26 18.2332589285714  C 26 19.571056547619  25.8541666666667 20.8684895833333  25.5625 22.1255580357143  L 24.125 28.4916294642857  C 23.9583333333333 29.229724702381  23.6041666666667 29.8323102678571  23.0625 30.2993861607143  C 22.5208333333333 30.7664620535714  21.90625 31  21.21875 31  L 10 31  C 9.375 31  8.77864583333333 30.8414248511905  8.2109375 30.5242745535714  C 7.64322916666667 30.2071242559524  7.171875 29.7775297619048  6.796875 29.2354910714286  L 0.796875 20.3783482142857  C 0.265625 19.5941220238095  0 18.7061011904762  0 17.7142857142857  C 0 16.5033482142857  0.388020833333333 15.4625186011905  1.1640625 14.591796875  C 1.94010416666667 13.7210751488095  2.875 13.2857142857143  3.96875 13.2857142857143  C 4.70833333333333 13.2857142857143  5.38541666666667 13.487537202381  6 13.8911830357143  L 6 4.42857142857143  C 6 3.20610119047619  6.390625 2.16238839285714  7.171875 1.29743303571429  Z M 11.5 24.3571428571429  L 12 24.3571428571429  L 12 17.7142857142857  L 11.5 17.7142857142857  L 11.5 24.3571428571429  Z M 15.5 24.3571428571429  L 16 24.3571428571429  L 16 17.7142857142857  L 15.5 17.7142857142857  L 15.5 24.3571428571429  Z M 19.5 24.3571428571429  L 20 24.3571428571429  L 20 17.7142857142857  L 19.5 17.7142857142857  L 19.5 24.3571428571429  Z " fill-rule="nonzero" fill="#000000" stroke="none" transform="matrix(1 0 0 1 204 456 )" />
  </g>
</svg>