<?xml version="1.0" encoding="utf-8"?>
<svg version="1.1" xmlns:xlink="http://www.w3.org/1999/xlink" width="26px" height="36px" xmlns="http://www.w3.org/2000/svg">
  <g transform="matrix(1 0 0 1 -204 -445 )">
    <path d="M 11.421875 3.36495535714286  C 11.0364583333333 2.8359375  10.5625 2.57142857142857  10 2.57142857142857  C 9.44791666666667 2.57142857142857  8.9765625 2.82254464285714  8.5859375 3.32477678571429  C 8.1953125 3.82700892857143  8 4.43303571428571  8 5.14285714285714  L 8 15.4285714285714  L 8 23.1428571428571  L 5.640625 19.0848214285714  C 5.21354166666667 18.3616071428571  4.65625 18  3.96875 18  C 3.42708333333333 18  2.96354166666667 18.2544642857143  2.578125 18.7633928571429  C 2.19270833333333 19.2723214285714  2 19.875  2 20.5714285714286  C 2 21.1473214285714  2.13541666666667 21.6629464285714  2.40625 22.1183035714286  L 8.40625 32.4040178571429  C 8.80208333333333 33.0870535714286  9.33333333333333 33.4285714285714  10 33  L 21.21875 33  C 21.4479166666667 33.4285714285714  21.6536458333333 33.3381696428571  21.8359375 33.1573660714286  C 22.0182291666667 32.9765625  22.1354166666667 32.7455357142857  22.1875 32.4642857142857  L 23.625 25.0714285714286  C 23.875 23.7857142857143  24 22.4866071428571  24 21.1741071428571  L 24 16.8147321428571  C 24 16.265625  23.8541666666667 15.7901785714286  23.5625 15.3883928571429  C 23.2708333333333 14.9866071428571  22.9166666666667 14.7857142857143  22.5 14.7857142857143  C 22.0833333333333 14.7857142857143  21.7291666666667 14.9732142857143  21.4375 15.3482142857143  C 21.1458333333333 15.7232142857143  21 16.1785714285714  21 16.7142857142857  L 20.5 16.7142857142857  L 20.5 15.4888392857143  C 20.5 14.8459821428571  20.3333333333333 14.3002232142857  20 13.8515625  C 19.6666666666667 13.4029017857143  19.25 13.1785714285714  18.75 13.1785714285714  C 18.2708333333333 13.1785714285714  17.859375 13.3995535714286  17.515625 13.8415178571429  C 17.171875 14.2834821428571  17 14.8125  17 15.4285714285714  L 17 16.7142857142857  L 16.5 16.7142857142857  L 16.5 14.90625  C 16.5 14.1696428571429  16.3072916666667 13.5368303571429  15.921875 13.0078125  C 15.5364583333333 12.4787946428571  15.0625 12.2142857142857  14.5 12.2142857142857  C 13.9479166666667 12.2142857142857  13.4765625 12.4654017857143  13.0859375 12.9676339285714  C 12.6953125 13.4698660714286  12.5 14.0758928571429  12.5 14.7857142857143  L 12.5 16.7142857142857  L 12 16.7142857142857  L 12 5.26339285714286  C 12 4.52678571428571  11.8072916666667 3.89397321428571  11.421875 3.36495535714286  Z M 7.171875 1.50669642857143  C 7.953125 0.502232142857145  8.89583333333333 0  10 0  C 11.1145833333333 0  12.0598958333333 0.518973214285716  12.8359375 1.55691964285714  C 13.6119791666667 2.59486607142857  14 3.83035714285714  14 5.26339285714286  L 14 9.68303571428572  C 14.2291666666667 9.65625  14.3958333333333 9.64285714285714  14.5 9.64285714285714  C 15.53125 9.64285714285714  16.4322916666667 10.1049107142857  17.203125 11.0290178571429  C 17.6927083333333 10.7477678571429  18.2083333333333 10.6071428571429  18.75 10.6071428571429  C 19.9270833333333 10.6071428571429  20.8854166666667 11.1897321428571  21.625 12.3549107142857  C 21.90625 12.2611607142857  22.1979166666667 12.2142857142857  22.5 12.2142857142857  C 23.4791666666667 12.2142857142857  24.3072916666667 12.6662946428571  24.984375 13.5703125  C 25.6614583333333 14.4743303571429  26 15.5558035714286  26 16.8147321428571  L 26 21.1741071428571  C 26 22.7276785714286  25.8541666666667 24.234375  25.5625 25.6941964285714  L 24.125 33.0870535714286  C 23.9583333333333 33.9441964285714  23.6041666666667 34.6439732142857  23.0625 35.1863839285714  C 22.5208333333333 35.7287946428571  21.90625 36  21.21875 36  L 10 36  C 9.375 36  8.77864583333333 35.8158482142857  8.2109375 35.4475446428571  C 7.64322916666667 35.0792410714286  7.171875 34.5803571428571  6.796875 33.9508928571429  L 0.796875 23.6651785714286  C 0.265625 22.7544642857143  0 21.7232142857143  0 20.5714285714286  C 0 19.1651785714286  0.388020833333333 17.9564732142857  1.1640625 16.9453125  C 1.94010416666667 15.9341517857143  2.875 15.4285714285714  3.96875 15.4285714285714  C 4.70833333333333 15.4285714285714  5.38541666666667 15.6629464285714  6 16.1316964285714  L 6 5.14285714285714  C 6 3.72321428571428  6.390625 2.51116071428571  7.171875 1.50669642857143  Z M 11.5 28.2857142857143  L 12 28.2857142857143  L 12 20.5714285714286  L 11.5 20.5714285714286  L 11.5 28.2857142857143  Z M 15.5 28.2857142857143  L 16 28.2857142857143  L 16 20.5714285714286  L 15.5 20.5714285714286  L 15.5 28.2857142857143  Z M 19.5 28.2857142857143  L 20 28.2857142857143  L 20 20.5714285714286  L 19.5 20.5714285714286  L 19.5 28.2857142857143  Z " fill-rule="nonzero" fill="#000000" stroke="none" transform="matrix(1 0 0 1 204 445 )" />
  </g>
</svg>