<?xml version="1.0" encoding="utf-8"?>
<svg version="1.1" xmlns:xlink="http://www.w3.org/1999/xlink" width="22px" height="25px" xmlns="http://www.w3.org/2000/svg">
  <g transform="matrix(1 0 0 1 -79 -184 )">
    <path d="M 9.66466346153846 2.33677455357143  C 9.33854166666667 1.96940104166667  8.9375 1.78571428571428  8.46153846153846 1.78571428571428  C 7.99439102564103 1.78571428571428  7.59555288461539 1.96010044642857  7.26502403846154 2.30887276785714  C 6.93449519230769 2.65764508928572  6.76923076923077 3.07849702380952  6.76923076923077 3.57142857142857  L 6.76923076923077 10.7142857142857  L 6.76923076923077 16.0714285714286  L 4.77283653846154 13.2533482142857  C 4.41145833333333 12.7511160714286  3.93990384615385 12.5  3.35817307692308 12.5  C 2.89983974358974 12.5  2.50761217948718 12.6767113095238  2.18149038461538 13.0301339285714  C 1.85536858974359 13.383556547619  1.69230769230769 13.8020833333333  1.69230769230769 14.2857142857143  C 1.69230769230769 14.6856398809524  1.80689102564103 15.043712797619  2.03605769230769 15.3599330357143  L 7.11298076923077 22.5027901785714  C 7.44791666666667 22.9771205357143  7.8974358974359 23.2142857142857  8.46153846153846 23.2142857142857  L 17.9543269230769 23.2142857142857  C 18.1482371794872 23.2142857142857  18.3223157051282 23.1515066964286  18.4765625 23.0259486607143  C 18.6308092948718 22.900390625  18.7299679487179 22.7399553571429  18.7740384615385 22.5446428571429  L 19.9903846153846 17.4107142857143  C 20.2019230769231 16.5178571428571  20.3076923076923 15.6156994047619  20.3076923076923 14.7042410714286  L 20.3076923076923 11.6768973214286  C 20.3076923076923 11.2955729166667  20.1842948717949 10.9654017857143  19.9375 10.6863839285714  C 19.6907051282051 10.4073660714286  19.3910256410256 10.2678571428571  19.0384615384615 10.2678571428571  C 18.6858974358974 10.2678571428571  18.3862179487179 10.3980654761905  18.1394230769231 10.6584821428571  C 17.8926282051282 10.9188988095238  17.7692307692308 11.235119047619  17.7692307692308 11.6071428571429  L 17.3461538461538 11.6071428571429  L 17.3461538461538 10.7561383928571  C 17.3461538461538 10.3097098214286  17.2051282051282 9.93071056547619  16.9230769230769 9.619140625  C 16.6410256410256 9.30757068452381  16.2884615384615 9.15178571428572  15.8653846153846 9.15178571428572  C 15.4599358974359 9.15178571428572  15.1117788461538 9.30524553571428  14.8209134615385 9.61216517857143  C 14.5300480769231 9.91908482142857  14.3846153846154 10.2864583333333  14.3846153846154 10.7142857142857  L 14.3846153846154 11.6071428571429  L 13.9615384615385 11.6071428571429  L 13.9615384615385 10.3515625  C 13.9615384615385 9.84002976190476  13.7984775641026 9.40057663690476  13.4723557692308 9.033203125  C 13.146233974359 8.66582961309524  12.7451923076923 8.48214285714286  12.2692307692308 8.48214285714286  C 11.8020833333333 8.48214285714286  11.4032451923077 8.65652901785714  11.0727163461538 9.00530133928572  C 10.7421875 9.35407366071428  10.5769230769231 9.77492559523809  10.5769230769231 10.2678571428571  L 10.5769230769231 11.6071428571429  L 10.1538461538462 11.6071428571429  L 10.1538461538462 3.65513392857143  C 10.1538461538462 3.14360119047619  9.99078525641026 2.70414806547619  9.66466346153846 2.33677455357143  Z M 6.06850961538462 1.04631696428572  C 6.72956730769231 0.348772321428573  7.52724358974359 0  8.46153846153846 0  C 9.40464743589744 0  10.2045272435897 0.360398065476192  10.8611778846154 1.08119419642857  C 11.517828525641 1.80199032738095  11.8461538461538 2.65997023809524  11.8461538461538 3.65513392857143  L 11.8461538461538 6.72433035714286  C 12.0400641025641 6.70572916666667  12.1810897435897 6.69642857142857  12.2692307692308 6.69642857142857  C 13.1418269230769 6.69642857142857  13.9042467948718 7.01729910714286  14.5564903846154 7.65904017857143  C 14.9707532051282 7.46372767857143  15.4070512820513 7.36607142857143  15.8653846153846 7.36607142857143  C 16.8613782051282 7.36607142857143  17.6722756410256 7.77064732142857  18.2980769230769 8.57979910714286  C 18.5360576923077 8.51469494047619  18.7828525641026 8.48214285714286  19.0384615384615 8.48214285714286  C 19.8669871794872 8.48214285714286  20.5677083333333 8.79603794642857  21.140625 9.423828125  C 21.7135416666667 10.0516183035714  22 10.8026413690476  22 11.6768973214286  L 22 14.7042410714286  C 22 15.7831101190476  21.8766025641026 16.8294270833333  21.6298076923077 17.8431919642857  L 20.4134615384615 22.9771205357143  C 20.2724358974359 23.5723586309524  19.9727564102564 24.0583147321429  19.5144230769231 24.4349888392857  C 19.0560897435897 24.8116629464286  18.5360576923077 25  17.9543269230769 25  L 8.46153846153846 25  C 7.93269230769231 25  7.42808493589744 24.8721168154762  6.94771634615385 24.6163504464286  C 6.46734775641026 24.360584077381  6.06850961538462 24.0141369047619  5.75120192307692 23.5770089285714  L 0.674278846153846 16.4341517857143  C 0.224759615384615 15.8017113095238  0 15.0855654761905  0 14.2857142857143  C 0 13.3091517857143  0.32832532051282 12.4697730654762  0.984975961538462 11.767578125  C 1.6416266025641 11.0653831845238  2.43269230769231 10.7142857142857  3.35817307692308 10.7142857142857  C 3.98397435897436 10.7142857142857  4.55689102564103 10.8770461309524  5.07692307692308 11.2025669642857  L 5.07692307692308 3.57142857142857  C 5.07692307692308 2.58556547619047  5.40745192307692 1.74386160714286  6.06850961538462 1.04631696428572  Z M 9.73076923076923 19.6428571428571  L 10.1538461538462 19.6428571428571  L 10.1538461538462 14.2857142857143  L 9.73076923076923 14.2857142857143  L 9.73076923076923 19.6428571428571  Z M 13.1153846153846 19.6428571428571  L 13.5384615384615 19.6428571428571  L 13.5384615384615 14.2857142857143  L 13.1153846153846 14.2857142857143  L 13.1153846153846 19.6428571428571  Z M 16.5 19.6428571428571  L 16.9230769230769 19.6428571428571  L 16.9230769230769 14.2857142857143  L 16.5 14.2857142857143  L 16.5 19.6428571428571  Z " fill-rule="nonzero" fill="#000000" stroke="none" transform="matrix(1 0 0 1 79 184 )" />
  </g>
</svg>