<?xml version="1.0" encoding="utf-8"?>
<svg version="1.1" xmlns:xlink="http://www.w3.org/1999/xlink" width="40px" height="40px" xmlns="http://www.w3.org/2000/svg">
  <defs>
    <filter x="916px" y="482px" width="40px" height="40px" filterUnits="userSpaceOnUse" id="filter55">
      <feOffset dx="1" dy="1" in="SourceAlpha" result="shadowOffsetInner" />
      <feGaussianBlur stdDeviation="2.5" in="shadowOffsetInner" result="shadowGaussian" />
      <feComposite in2="shadowGaussian" operator="atop" in="SourceAlpha" result="shadowComposite" />
      <feColorMatrix type="matrix" values="0 0 0 0 0  0 0 0 0 0  0 0 0 0 0  0 0 0 0.698039215686274 0  " in="shadowComposite" />
    </filter>
    <g id="widget56">
      <path d="M 935 486  C 943.4 486  950 492.6  950 501  C 950 509.4  943.4 516  935 516  C 926.6 516  920 509.4  920 501  C 920 492.6  926.6 486  935 486  Z " fill-rule="nonzero" fill="#f59a23" stroke="none" />
      <path d="M 935 486.5  C 943.12 486.5  949.5 492.88  949.5 501  C 949.5 509.12  943.12 515.5  935 515.5  C 926.88 515.5  920.5 509.12  920.5 501  C 920.5 492.88  926.88 486.5  935 486.5  Z " stroke-width="1" stroke="#ffffff" fill="none" />
    </g>
  </defs>
  <g transform="matrix(1 0 0 1 -916 -482 )">
    <use xlink:href="#widget56" filter="url(#filter55)" />
    <use xlink:href="#widget56" />
  </g>
</svg>