<?xml version="1.0" encoding="utf-8"?>
<svg version="1.1" xmlns:xlink="http://www.w3.org/1999/xlink" width="31px" height="41px" xmlns="http://www.w3.org/2000/svg">
  <g transform="matrix(1 0 0 1 -672 -460 )">
    <path d="M 13.6183894230769 3.83231026785714  C 13.1588541666667 3.22981770833333  12.59375 2.92857142857143  11.9230769230769 2.92857142857143  C 11.2648237179487 2.92857142857143  10.7028245192308 3.21456473214286  10.2370793269231 3.78655133928571  C 9.77133413461539 4.35853794642857  9.53846153846154 5.04873511904761  10 5.85714285714286  L 10 17.5714285714286  L 9.53846153846154 26.3571428571429  L 6.72536057692308 21.7354910714286  C 6.21614583333333 20.9118303571429  5.55168269230769 20.5  4.73197115384615 20.5  C 4.08613782051282 20.5  3.53345352564103 20.789806547619  3.07391826923077 21.3694196428571  C 2.61438301282051 21.9490327380952  2.38461538461538 22.6354166666667  2.38461538461538 23.4285714285714  C 2.38461538461538 24.0844494047619  2.54607371794872 24.6716889880952  2.86899038461538 25.1902901785714  L 10.0228365384615 36.9045758928571  C 10.4947916666667 37.6824776785714  11.1282051282051 38.0714285714286  11.9230769230769 38  L 25.2992788461538 38  C 25.572516025641 38.0714285714286  25.8178084935897 37.9684709821429  26.03515625 37.7625558035714  C 26.2525040064103 37.556640625  26.3922275641026 37.2935267857143  26.4543269230769 36.9732142857143  L 28.1682692307692 28.5535714285714  C 28.4663461538462 27.0892857142857  28.6153846153846 25.6097470238095  28.6153846153846 24.1149553571429  L 28.6153846153846 19.1501116071429  C 28.6153846153846 18.5247395833333  28.4415064102564 17.9832589285714  28.09375 17.5256696428571  C 27.7459935897436 17.0680803571429  27.323717948718 16.8392857142857  26.8269230769231 16.8392857142857  C 26.3301282051282 16.8392857142857  25.9078525641026 17.0528273809524  25.5600961538462 17.4799107142857  C 25.2123397435897 17.906994047619  25.0384615384615 18.4255952380952  25.0384615384615 19.0357142857143  L 24.4423076923077 19.0357142857143  L 24.4423076923077 17.6400669642857  C 24.4423076923077 16.9079241071429  24.2435897435897 16.2863653273809  23.8461538461538 15.775390625  C 23.448717948718 15.264415922619  22.9519230769231 15.0089285714286  22.3557692307692 15.0089285714286  C 21.7844551282051 15.0089285714286  21.2938701923077 15.2606026785714  20.8840144230769 15.7639508928571  C 20.4741586538462 16.2672991071429  20.2692307692308 16.8697916666667  20.2692307692308 17.5714285714286  L 20.2692307692308 19.0357142857143  L 19.6730769230769 19.0357142857143  L 19.6730769230769 16.9765625  C 19.6730769230769 16.1376488095238  19.4433092948718 15.4169456845238  18.9837740384615 14.814453125  C 18.5242387820513 14.2119605654762  17.9591346153846 13.9107142857143  17.2884615384615 13.9107142857143  C 16.6302083333333 13.9107142857143  16.0682091346154 14.1967075892857  15.6024639423077 14.7686941964286  C 15.13671875 15.3406808035714  14.9038461538462 16.0308779761905  14.9038461538462 16.8392857142857  L 14.9038461538462 19.0357142857143  L 14.3076923076923 19.0357142857143  L 14.3076923076923 5.99441964285714  C 14.3076923076923 5.15550595238095  14.0779246794872 4.43480282738095  13.6183894230769 3.83231026785714  Z M 8.55108173076923 1.71595982142857  C 9.48257211538462 0.571986607142859  10.6065705128205 0  11.9230769230769 0  C 13.2520032051282 0  14.3791065705128 0.591052827380955  15.3043870192308 1.77315848214286  C 16.2296674679487 2.95526413690476  16.6923076923077 4.36235119047619  16.6923076923077 5.99441964285714  L 16.6923076923077 11.0279017857143  C 16.9655448717949 10.9973958333333  17.1642628205128 10.9821428571429  17.2884615384615 10.9821428571429  C 18.5180288461538 10.9821428571429  19.5923477564103 11.5083705357143  20.5114182692308 12.5608258928571  C 21.0951522435897 12.2405133928571  21.7099358974359 12.0803571428571  22.3557692307692 12.0803571428571  C 23.7592147435897 12.0803571428571  24.901842948718 12.7438616071429  25.7836538461538 14.0708705357143  C 26.1189903846154 13.964099702381  26.4667467948718 13.9107142857143  26.8269230769231 13.9107142857143  C 27.994391025641 13.9107142857143  28.9817708333333 14.4255022321429  29.7890625 15.455078125  C 30.5963541666667 16.4846540178571  31 17.7163318452381  31 19.1501116071429  L 31 24.1149553571429  C 31 25.8843005952381  30.8261217948718 27.6002604166667  30.4783653846154 29.2628348214286  L 28.7644230769231 37.6824776785714  C 28.5657051282051 38.6586681547619  28.1434294871795 39.4556361607143  27.4975961538462 40.0733816964286  C 26.8517628205128 40.6911272321429  26.1189903846154 41  25.2992788461538 41  L 11.9230769230769 41  C 11.1778846153846 41  10.4668469551282 40.7902715773809  9.78996394230769 40.3708147321429  C 9.11308092948718 39.9513578869048  8.55108173076923 39.3831845238095  8.10396634615384 38.6662946428571  L 0.950120192307692 26.9520089285714  C 0.316706730769231 25.914806547619  0 24.7403273809524  0 23.4285714285714  C 0 21.8270089285714  0.462640224358974 20.4504278273809  1.38792067307692 19.298828125  C 2.31320112179487 18.1472284226191  3.42788461538462 17.5714285714286  4.73197115384615 17.5714285714286  C 5.61378205128205 17.5714285714286  6.42107371794872 17.8383556547619  7.15384615384615 18.3722098214286  L 7.15384615384615 5.85714285714286  C 7.15384615384615 4.24032738095238  7.61959134615385 2.85993303571429  8.55108173076923 1.71595982142857  Z M 13.7115384615385 32.2142857142857  L 14.3076923076923 32.2142857142857  L 14.3076923076923 23.4285714285714  L 13.7115384615385 23.4285714285714  L 13.7115384615385 32.2142857142857  Z M 18.4807692307692 32.2142857142857  L 19.0769230769231 32.2142857142857  L 19.0769230769231 23.4285714285714  L 18.4807692307692 23.4285714285714  L 18.4807692307692 32.2142857142857  Z M 23.25 32.2142857142857  L 23.8461538461538 32.2142857142857  L 23.8461538461538 23.4285714285714  L 23.25 23.4285714285714  L 23.25 32.2142857142857  Z " fill-rule="nonzero" fill="#000000" stroke="none" transform="matrix(1 0 0 1 672 460 )" />
  </g>
</svg>