<?xml version="1.0" encoding="utf-8"?>
<svg version="1.1" xmlns:xlink="http://www.w3.org/1999/xlink" width="30px" height="35px" xmlns="http://www.w3.org/2000/svg">
  <g transform="matrix(1 0 0 1 -694 -308 )">
    <path d="M 13.1790865384615 3.271484375  C 12.734375 2.75716145833333  12.1875 2.5  11.5384615384615 2.5  C 10.9014423076923 2.5  10.3575721153846 2.744140625  9.90685096153846 3.232421875  C 9.45612980769231 3.720703125  9.23076923076923 4.30989583333333  9.23076923076923 5  L 9.23076923076923 15  L 9.23076923076923 22.5  L 6.50841346153846 18.5546875  C 6.015625 17.8515625  5.37259615384615 17.5  4.57932692307692 17.5  C 3.95432692307692 17.5  3.41947115384615 17.7473958333333  2.97475961538462 18.2421875  C 2.53004807692308 18.7369791666667  2.30769230769231 19.3229166666667  2.30769230769231 20  C 2.30769230769231 20.5598958333333  2.46394230769231 21.0611979166667  2.77644230769231 21.50390625  L 9.69951923076923 31.50390625  C 10.15625 32.16796875  10.7692307692308 32.5  11.5384615384615 32  L 24.4831730769231 32  C 24.7475961538462 32.5  24.9849759615385 32.412109375  25.1953125 32.236328125  C 25.4056490384615 32.060546875  25.5408653846154 31.8359375  25.6009615384615 31.5625  L 27.2596153846154 24.375  C 27.5480769230769 23.125  27.6923076923077 21.8619791666667  27.6923076923077 20.5859375  L 27.6923076923077 16.34765625  C 27.6923076923077 15.8138020833333  27.5240384615385 15.3515625  27.1875 14.9609375  C 26.8509615384615 14.5703125  26.4423076923077 14.375  25.9615384615385 14.375  C 25.4807692307692 14.375  25.0721153846154 14.5572916666667  24.7355769230769 14.921875  C 24.3990384615385 15.2864583333333  24.2307692307692 15.7291666666667  24.2307692307692 16.25  L 23.6538461538462 16.25  L 23.6538461538462 15.05859375  C 23.6538461538462 14.43359375  23.4615384615385 13.9029947916667  23.0769230769231 13.466796875  C 22.6923076923077 13.0305989583333  22.2115384615385 12.8125  21.6346153846154 12.8125  C 21.0817307692308 12.8125  20.6069711538462 13.02734375  20.2103365384615 13.45703125  C 19.8137019230769 13.88671875  19.6153846153846 14.4010416666667  19.6153846153846 15  L 19.6153846153846 16.25  L 19.0384615384615 16.25  L 19.0384615384615 14.4921875  C 19.0384615384615 13.7760416666667  18.8161057692308 13.1608072916667  18.3713942307692 12.646484375  C 17.9266826923077 12.1321614583333  17.3798076923077 11.875  16.7307692307692 11.875  C 16.09375 11.875  15.5498798076923 12.119140625  15.0991586538462 12.607421875  C 14.6484375 13.095703125  14.4230769230769 13.6848958333333  14.4230769230769 14.375  L 14.4230769230769 16.25  L 14 16.25  L 14 5.1171875  C 13.8461538461538 4.40104166666666  13.6237980769231 3.78580729166666  13.1790865384615 3.271484375  Z M 8.27524038461539 1.46484375  C 9.17668269230769 0.488281250000002  10.2644230769231 0  11.5384615384615 0  C 12.8245192307692 0  13.9152644230769 0.504557291666669  14.8106971153846 1.513671875  C 15.7061298076923 2.52278645833333  16.1538461538462 3.72395833333333  16.1538461538462 5.1171875  L 16.1538461538462 9.4140625  C 16.4182692307692 9.38802083333333  16.6105769230769 9.375  16.7307692307692 9.375  C 17.9206730769231 9.375  18.9603365384615 9.82421875  19.8497596153846 10.72265625  C 20.4146634615385 10.44921875  21.0096153846154 10.3125  21.6346153846154 10.3125  C 22.9927884615385 10.3125  24.0985576923077 10.87890625  24.9519230769231 12.01171875  C 25.2764423076923 11.9205729166667  25.6129807692308 11.875  25.9615384615385 11.875  C 27.0913461538462 11.875  28.046875 12.314453125  28.828125 13.193359375  C 29.609375 14.072265625  30 15.1236979166667  30 16.34765625  L 30 20.5859375  C 30 22.0963541666667  29.8317307692308 23.5611979166667  29.4951923076923 24.98046875  L 27.8365384615385 32.16796875  C 27.6442307692308 33.0013020833333  27.2355769230769 33.681640625  26.6105769230769 34.208984375  C 25.9855769230769 34.736328125  25.2764423076923 35  24.4831730769231 35  L 11.5384615384615 35  C 10.8173076923077 35  10.1292067307692 34.8209635416667  9.47415865384615 34.462890625  C 8.81911057692308 34.1048177083333  8.27524038461539 33.6197916666667  7.84254807692308 33.0078125  L 0.919471153846154 23.0078125  C 0.306490384615385 22.1223958333333  0 21.1197916666667  0 20  C 0 18.6328125  0.447716346153846 17.4576822916667  1.34314903846154 16.474609375  C 2.23858173076923 15.4915364583333  3.31730769230769 15  4.57932692307692 15  C 5.43269230769231 15  6.21394230769231 15.2278645833333  7 15.68359375  L 7 5  C 6.92307692307692 3.61979166666666  7.37379807692308 2.44140625  8.27524038461539 1.46484375  Z M 13.2692307692308 27.5  L 13.8461538461538 27.5  L 13.8461538461538 20  L 13.2692307692308 20  L 13.2692307692308 27.5  Z M 17.8846153846154 27.5  L 18.4615384615385 27.5  L 18.4615384615385 20  L 17.8846153846154 20  L 17.8846153846154 27.5  Z M 22.5 27.5  L 23.0769230769231 27.5  L 23.0769230769231 20  L 22.5 20  L 22.5 27.5  Z " fill-rule="nonzero" fill="#000000" stroke="none" transform="matrix(1 0 0 1 694 308 )" />
  </g>
</svg>